# xmcd CD database file
# Copyright (C) 1997 Ti Kan
#
# Track frame offsets:
#  150
#  14582
#  35532
#  53152
#  68170
#  85710
#  100965
#  118882
#  134967
#  153845
#
# Disc length: 2296 seconds
#
# Revision: 1
# Processed by: cddbd v1.4b41PL1 Copyright (c) Steve Scherf et al.
# Submitted via: CDWizzard Release:4.35
#
DISCID=8908f60a
DTITLE=Mark and Sherry Willhoite - Walk Across Texas
DYEAR=1900
DGENRE=
TTITLE0=Stormin' Down The Gates
TTITLE1=Snow Storm
TTITLE2=Build An Alter
TTITLE3=Daddy Stood For The Family
TTITLE4=Raining On The Outside
TTITLE5=Holy Ghost Ho Down
TTITLE6=Mama, Pray For Me
TTITLE7=Old Fashioned Feeling
TTITLE8=More Than Enough Love
TTITLE9=Walk Across Texas
EXTD=
EXTT0=
EXTT1=
EXTT2=
EXTT3=
EXTT4=
EXTT5=
EXTT6=
EXTT7=
EXTT8=
EXTT9=
PLAYORDER=
